<svg width="165" height="169" xmlns="http://www.w3.org/2000/svg">
 <g>
  <title>background</title>
  <rect fill="none" id="canvas_background" height="171" width="167" y="-1" x="-1"/>
 </g>

 <g>
  <title>Layer 1</title>
  <path fill="#fff" fill-opacity="null" stroke="#000" stroke-width="1.5" stroke-linejoin="null" stroke-linecap="null" stroke-opacity="null" d="m9,92c-8,-46.72376 1.0663,-91 53,-91c51.9337,0 19,83.13812 61,82c42,-1.13812 21.98343,61.61188 11.47514,73.14641c-10.50829,11.53453 -31.50829,12.85359 -57.47514,12.85359c-51.9337,0 -60,-30.27624 -68,-77z" id="svg_1"/>
  <ellipse fill="#fff" stroke="#000" stroke-width="1.5" stroke-opacity="null" fill-opacity="null" cx="46.5" cy="72.5" id="svg_4" rx="7" ry="7"/>
  <ellipse fill="#fff" stroke-width="1.5" stroke-opacity="null" fill-opacity="null" cx="71.5" cy="68" id="svg_5" rx="7" ry="7" stroke="#000"/>
  <path stroke="#000" fill="#fff" fill-opacity="null" stroke-width="1.5" stroke-linejoin="null" stroke-linecap="null" stroke-opacity="null" d="m49.14874,90.41111c0,-3.60119 6.71271,-1.88932 15,-1.88932c8.28729,0 15,-1.71187 15,1.88932c0,3.60119 -6.71271,6.51815 -15,6.51815c-8.28729,0 -15,-2.91696 -15,-6.51815z" id="svg_7" transform="rotate(171 64.14874267578125,92.52222442626953) "/>
  <rect stroke="#000" fill="#fff" stroke-width="1.5" x="52" y="45" width="108" height="11" id="svg_3" transform="rotate(-51 106,50.5) "/>
  <line stroke="#000" fill="none" stroke-width="1.5" stroke-opacity="null" fill-opacity="null" x1="72" y1="92" x2="133" y2="18" id="svg_6" stroke-linejoin="null" stroke-linecap="null"/>
 </g>
</svg>
